<svg width="33" height="23" viewBox="0 0 33 23" fill="none" xmlns="http://www.w3.org/2000/svg">
<path d="M33 0.299438H0V22.2997H33V0.299438Z" fill="#F0F0F0"/>
<path d="M33 3.0492H0V5.79896H33V3.0492Z" fill="#D80027"/>
<path d="M33 8.54944H0V11.2992H33V8.54944Z" fill="#D80027"/>
<path d="M33 14.049H0V16.7987H33V14.049Z" fill="#D80027"/>
<path d="M33 19.5492H0V22.299H33V19.5492Z" fill="#D80027"/>
<path d="M16.5 0.299438H0V12.1457H16.5V0.299438Z" fill="#2E52B2"/>
<path d="M6.43388 5.15231L6.16814 5.96983H5.30859L6.00411 6.47482L5.73837 7.29228L6.43388 6.78729L7.12894 7.29228L6.86327 6.47482L7.55878 5.96983H6.69917L6.43388 5.15231Z" fill="#F0F0F0"/>
<path d="M6.69917 8.91998L6.43388 8.10252L6.16814 8.91998H5.30859L6.00411 9.42503L5.73837 10.2425L6.43388 9.73744L7.12894 10.2425L6.86327 9.42503L7.55878 8.91998H6.69917Z" fill="#F0F0F0"/>
<path d="M3.06642 8.91998L2.80107 8.10252L2.53533 8.91998H1.67578L2.37129 9.42503L2.10555 10.2425L2.80107 9.73744L3.49619 10.2425L3.23052 9.42503L3.9259 8.91998H3.06642Z" fill="#F0F0F0"/>
<path d="M2.80107 5.15231L2.53533 5.96983H1.67578L2.37129 6.47482L2.10555 7.29228L2.80107 6.78729L3.49619 7.29228L3.23052 6.47482L3.9259 5.96983H3.06642L2.80107 5.15231Z" fill="#F0F0F0"/>
<path d="M6.43388 2.20203L6.16814 3.01962H5.30859L6.00411 3.52468L5.73837 4.34213L6.43388 3.83708L7.12894 4.34213L6.86327 3.52468L7.55878 3.01962H6.69917L6.43388 2.20203Z" fill="#F0F0F0"/>
<path d="M2.80107 2.20204L2.53533 3.01963H1.67578L2.37129 3.52468L2.10555 4.34214L2.80107 3.83709L3.49619 4.34214L3.23052 3.52468L3.9259 3.01963H3.06642L2.80107 2.20204Z" fill="#F0F0F0"/>
<path d="M10.0666 5.15231L9.80095 5.96983H8.94141L9.63685 6.47482L9.37124 7.29228L10.0666 6.78729L10.7618 7.29228L10.4961 6.47482L11.1916 5.96983H10.332L10.0666 5.15231Z" fill="#F0F0F0"/>
<path d="M10.332 8.91998L10.0666 8.10252L9.80095 8.91998H8.94141L9.63685 9.42503L9.37124 10.2425L10.0666 9.73744L10.7618 10.2425L10.4961 9.42503L11.1916 8.91998H10.332Z" fill="#F0F0F0"/>
<path d="M13.9648 8.91998L13.6994 8.10252L13.4337 8.91998H12.5742L13.2696 9.42503L13.0039 10.2425L13.6994 9.73744L14.3946 10.2425L14.1288 9.42503L14.8243 8.91998H13.9648Z" fill="#F0F0F0"/>
<path d="M13.6994 5.15231L13.4337 5.96983H12.5742L13.2696 6.47482L13.0039 7.29228L13.6994 6.78729L14.3946 7.29228L14.1288 6.47482L14.8243 5.96983H13.9648L13.6994 5.15231Z" fill="#F0F0F0"/>
<path d="M10.0666 2.20203L9.80095 3.01962H8.94141L9.63685 3.52468L9.37124 4.34213L10.0666 3.83708L10.7618 4.34213L10.4961 3.52468L11.1916 3.01962H10.332L10.0666 2.20203Z" fill="#F0F0F0"/>
<path d="M13.6994 2.20203L13.4337 3.01962H12.5742L13.2696 3.52468L13.0039 4.34213L13.6994 3.83708L14.3946 4.34213L14.1288 3.52468L14.8243 3.01962H13.9648L13.6994 2.20203Z" fill="#F0F0F0"/>
</svg>
