<svg width="38" height="39" viewBox="0 0 38 39" fill="none" xmlns="http://www.w3.org/2000/svg">
<circle cx="19" cy="19.8939" r="19" fill="#6F4F28"/>
<path d="M26.46 16.804C26.4249 16.007 26.296 15.459 26.1113 14.9842C25.9209 14.4802 25.6278 14.029 25.2439 13.6539C24.8688 13.273 24.4146 12.977 23.9165 12.7895C23.439 12.6049 22.8939 12.476 22.0969 12.4409C21.2939 12.4027 21.039 12.3939 19.0025 12.3939C16.9659 12.3939 16.711 12.4027 15.911 12.4379C15.114 12.473 14.5661 12.602 14.0914 12.7865C13.5873 12.977 13.1361 13.27 12.761 13.6539C12.3801 14.029 12.0842 14.4832 11.8966 14.9814C11.7119 15.459 11.583 16.004 11.5479 16.801C11.5098 17.604 11.501 17.8589 11.501 19.8954C11.501 21.9319 11.5098 22.1869 11.5449 22.9868C11.5801 23.7839 11.7091 24.3318 11.8937 24.8066C12.0842 25.3106 12.3801 25.7618 12.761 26.1369C13.1361 26.5178 13.5903 26.8138 14.0884 27.0013C14.5661 27.1859 15.111 27.3148 15.9082 27.35C16.708 27.3852 16.9631 27.3939 18.9996 27.3939C21.0361 27.3939 21.291 27.3852 22.091 27.35C22.888 27.3148 23.436 27.1859 23.9107 27.0013C24.9187 26.6116 25.7158 25.8146 26.1055 24.8066C26.29 24.3289 26.419 23.7839 26.4542 22.9868C26.4893 22.1869 26.4981 21.9319 26.4981 19.8954C26.4981 17.8589 26.4951 17.604 26.46 16.804ZM25.1092 22.9282C25.0769 23.6608 24.9539 24.0564 24.8513 24.3201C24.5993 24.9736 24.0806 25.4922 23.4272 25.7443C23.1634 25.8468 22.765 25.9699 22.0353 26.002C21.2441 26.0373 21.0068 26.046 19.0054 26.046C17.004 26.046 16.7638 26.0373 15.9755 26.002C15.2429 25.9699 14.8473 25.8468 14.5836 25.7443C14.2584 25.6241 13.9624 25.4336 13.7221 25.1845C13.4731 24.9413 13.2826 24.6483 13.1624 24.3231C13.0599 24.0594 12.9368 23.6608 12.9046 22.9312C12.8694 22.14 12.8607 21.9026 12.8607 19.9012C12.8607 17.8999 12.8694 17.6596 12.9046 16.8714C12.9368 16.1388 13.0599 15.7432 13.1624 15.4795C13.2826 15.1542 13.4731 14.8583 13.7251 14.6179C13.9682 14.3689 14.2613 14.1784 14.5866 14.0583C14.8503 13.9558 15.2489 13.8327 15.9784 13.8004C16.7696 13.7653 17.007 13.7565 19.0083 13.7565C21.0127 13.7565 21.25 13.7653 22.0383 13.8004C22.7708 13.8327 23.1664 13.9558 23.4301 14.0583C23.7553 14.1784 24.0513 14.3689 24.2916 14.6179C24.5407 14.8612 24.7311 15.1542 24.8513 15.4795C24.9539 15.7432 25.0769 16.1417 25.1092 16.8714C25.1444 17.6626 25.1532 17.8999 25.1532 19.9012C25.1532 21.9026 25.1444 22.1371 25.1092 22.9282Z" fill="#FAF6F2"/>
<path d="M19.0027 16.0421C16.8754 16.0421 15.1494 17.768 15.1494 19.8954C15.1494 22.0228 16.8754 23.7487 19.0027 23.7487C21.1301 23.7487 22.856 22.0228 22.856 19.8954C22.856 17.768 21.1301 16.0421 19.0027 16.0421ZM19.0027 22.395C17.6226 22.395 16.5032 21.2756 16.5032 19.8954C16.5032 18.5152 17.6226 17.3959 19.0027 17.3959C20.3829 17.3959 21.5023 18.5152 21.5023 19.8954C21.5023 21.2756 20.3829 22.395 19.0027 22.395Z" fill="#FAF6F2"/>
<path d="M23.9077 15.8898C23.9077 16.3866 23.5049 16.7894 23.008 16.7894C22.5112 16.7894 22.1084 16.3866 22.1084 15.8898C22.1084 15.3929 22.5112 14.9902 23.008 14.9902C23.5049 14.9902 23.9077 15.3929 23.9077 15.8898Z" fill="#FAF6F2"/>
</svg>
