<svg width="38" height="39" viewBox="0 0 38 39" fill="none" xmlns="http://www.w3.org/2000/svg">
<circle cx="19" cy="19.8938" r="19" fill="#6F4F28"/>
<path d="M20.9939 14.8204C21.4873 14.8902 21.9705 15.0141 22.4479 15.1608C23.2814 15.4175 24.0678 15.774 24.8074 16.2366C24.8589 16.2685 24.9276 16.2887 24.9882 16.2887C25.857 16.2923 26.7254 16.2911 27.5935 16.2918C27.6634 16.2918 27.733 16.2991 27.8028 16.3031C27.8028 16.3201 27.8053 16.3273 27.8024 16.3313C27.7619 16.3937 27.7208 16.4552 27.6801 16.5174C27.3854 16.9694 27.1336 17.4421 26.9849 17.9648C26.9688 18.0209 26.9654 18.0679 27.0034 18.123C27.7768 19.2335 28.0235 20.4527 27.7004 21.767C27.417 22.9196 26.7563 23.8184 25.7523 24.4547C25.0347 24.9097 24.242 25.1264 23.3951 25.131C23.0392 25.1332 22.6852 25.0853 22.3376 24.9953C21.4907 24.7756 20.7647 24.3534 20.1664 23.714C20.0875 23.63 20.0133 23.5423 19.9291 23.4475C19.6128 23.919 19.3014 24.3828 18.9825 24.8588C18.6649 24.3842 18.3579 23.9249 18.0515 23.4674C18.0304 23.4785 18.0243 23.4798 18.0202 23.4837C18.0132 23.4894 18.0072 23.4964 18.0017 23.5031C17.278 24.3577 16.3676 24.8815 15.2585 25.0568C14.6416 25.1545 14.0305 25.1194 13.4313 24.9542C12.5821 24.7209 11.8604 24.2728 11.2773 23.6118C10.7075 22.9654 10.3532 22.215 10.2201 21.3618C10.0678 20.5655 10.2533 19.7977 10.2995 19.6114C10.4337 19.0697 10.6676 18.5724 10.9886 18.1151C11.0112 18.0826 11.0191 18.0252 11.0083 17.9865C10.8774 17.5063 10.6518 17.0696 10.3876 16.6514C10.3205 16.545 10.2402 16.4466 10.1659 16.3445C10.1659 16.3329 10.1659 16.3208 10.1659 16.309C10.1808 16.3108 10.1955 16.3137 10.21 16.3137C11.0989 16.314 11.9876 16.3144 12.8764 16.3126C12.9152 16.3126 12.9582 16.2966 12.9912 16.2755C13.6157 15.8748 14.2811 15.5574 14.9802 15.3102C15.4843 15.1323 15.9991 14.9935 16.524 14.8918C17.0323 14.7935 17.5433 14.7243 18.0596 14.6902C19.3185 14.5934 20.3246 14.7266 20.9939 14.8204ZM19.8796 20.6907C19.8796 22.6426 21.4633 24.2371 23.4082 24.2296C25.3604 24.2226 26.9369 22.6729 26.9354 20.6995C26.934 18.6658 25.2843 17.1371 23.3325 17.1767C21.4056 17.2167 19.8972 18.7699 19.8796 20.6907ZM14.5869 17.1633C12.6883 17.1468 11.0329 18.7313 11.0661 20.7497C11.0969 22.632 12.6483 24.2276 14.6263 24.2106C16.5604 24.1941 18.115 22.6148 18.1186 20.7022C18.1217 18.7372 16.5481 17.1633 14.5869 17.1633ZM14.7619 16.2425C15.8344 16.3079 16.7765 16.6817 17.5725 17.4056C18.3668 18.128 18.8322 19.0292 19.0014 20.089C19.1753 19.0418 19.6286 18.149 20.408 17.4337C21.1887 16.7177 22.1183 16.342 23.1732 16.2626C21.9214 15.706 20.6013 15.4697 19.2426 15.4435C17.6984 15.4132 16.1964 15.6408 14.7619 16.2425Z" fill="#FAF6F2"/>
<path d="M23.4015 18.4639C24.6094 18.462 25.5878 19.4351 25.5878 20.6418C25.5878 21.8531 24.6261 22.7895 23.4915 22.8327C22.2244 22.8813 21.2106 21.8718 21.2109 20.6472C21.212 19.4086 22.233 18.4435 23.4015 18.4639ZM24.8263 20.6472C24.8257 19.8598 24.1892 19.2199 23.4072 19.2199C22.6163 19.2199 21.9725 19.8564 21.9692 20.6414C21.9664 21.423 22.6134 22.0733 23.397 22.0755C24.1819 22.0785 24.8266 21.4331 24.8263 20.6472Z" fill="#FAF6F2"/>
<path d="M14.5406 18.464C15.7478 18.4627 16.7275 19.4376 16.7245 20.6441C16.7211 21.8653 15.7585 22.7813 14.6439 22.832C13.3717 22.8901 12.3453 21.8761 12.3477 20.6448C12.3502 19.3975 13.3782 18.4432 14.5406 18.464ZM15.9637 20.6423C15.9614 19.8501 15.3207 19.2187 14.521 19.2201C13.7496 19.2215 13.1033 19.8726 13.1051 20.6468C13.107 21.43 13.7527 22.0741 14.5384 22.0762C15.3193 22.078 15.9657 21.4277 15.9637 20.6423Z" fill="#FAF6F2"/>
<path d="M23.4016 19.9224C23.8019 19.922 24.1301 20.2504 24.1264 20.6484C24.1224 21.0472 23.7998 21.3704 23.4061 21.3706C23.0008 21.3706 22.6749 21.0503 22.6758 20.6534C22.6765 20.2416 22.9931 19.9227 23.4016 19.9224Z" fill="#FAF6F2"/>
<path d="M14.5367 19.9159C14.9431 19.9155 15.2697 20.2402 15.2713 20.6453C15.2729 21.047 14.9433 21.3769 14.5388 21.3778C14.1247 21.3787 13.8053 21.0587 13.8057 20.6424C13.8057 20.2337 14.1244 19.9164 14.5367 19.9159Z" fill="#FAF6F2"/>
</svg>
