<svg width="25" height="20" viewBox="0 0 25 20" fill="none" xmlns="http://www.w3.org/2000/svg">
<path d="M20.4917 8.87972H4.5959C4.34672 8.87972 4.14474 8.68644 4.14474 8.4481C4.14474 8.20976 4.34672 8.01648 4.5959 8.01648H20.4917C20.7409 8.01648 20.9429 8.20976 20.9429 8.4481C20.9429 8.68644 20.7409 8.87972 20.4917 8.87972Z" fill="#201B13"/>
<path d="M5.91587 8.49014C7.23954 7.59647 7.88351 5.92533 7.88351 4.01127V1.42432H2.76224V17.7191H8.11238V12.2245C8.11238 10.6298 7.23449 9.26299 5.91587 8.49014Z" fill="#6F4F28"/>
<path d="M19.1717 8.49014C17.8481 7.59647 17.2041 5.92533 17.2041 4.01127V1.42432H22.3254V17.7191H16.9752V12.2245C16.9752 10.6298 17.8531 9.26299 19.1717 8.49014Z" fill="#6F4F28"/>
<path d="M23.6421 17.2874H12.995V1.85591H23.1641C23.4132 1.85591 23.6152 1.66263 23.6152 1.42429C23.6152 1.18595 23.4132 0.992676 23.1641 0.992676H1.92354C1.67437 0.992676 1.47239 1.18595 1.47239 1.42429C1.47239 1.66263 1.67437 1.85591 1.92354 1.85591H12.0927V17.2874H1.4455C1.19633 17.2874 0.994354 17.4807 0.994354 17.719V19.5611C0.994354 19.7994 1.19633 19.9927 1.4455 19.9927H23.6421C23.8913 19.9927 24.0933 19.7994 24.0933 19.5611V17.719C24.0933 17.4807 23.8913 17.2874 23.6421 17.2874ZM23.191 19.1295H1.89665V18.1507H23.191V19.1295Z" fill="#201B13"/>
</svg>
