<svg width="28" height="20" viewBox="0 0 28 20" fill="none" xmlns="http://www.w3.org/2000/svg">
<path d="M26.9545 6.81224C26.9545 5.35395 25.7711 4.17176 24.3112 4.17176C24.0618 4.17176 23.8204 4.20629 23.5916 4.2708C23.2944 2.19469 21.411 0.582886 19.1644 0.582886C17.756 0.582886 16.3912 1.21823 15.5267 2.25974C15.17 2.04721 14.753 1.92509 14.3075 1.92509C13.0336 1.92509 11.9932 2.92338 11.9273 4.17952C11.8602 4.17442 11.7924 4.17176 11.724 4.17176C10.4951 4.17176 9.46216 5.00947 9.16602 6.14443H11.4344C11.9229 6.14443 12.3356 6.46929 12.4682 6.91476H26.9525C26.9539 6.88093 26.9545 6.84667 26.9545 6.81224Z" fill="#6F4F28"/>
<path d="M27.2939 6.37178H12.8141C12.5281 5.9098 12.0166 5.60144 11.4345 5.60144H5.75089C5.16875 5.60144 4.65731 5.9098 4.37127 6.37178H0.578997C0.279106 6.37178 0.0360107 6.61492 0.0360107 6.91476V12.3224C0.0360107 14.68 1.84019 16.6242 4.14039 16.8467C4.01632 17.0991 3.94655 17.3828 3.94655 17.6825C3.94655 18.7304 4.79909 19.5829 5.847 19.5829C6.89491 19.5829 7.74745 18.7304 7.74745 17.6825C7.74745 17.3911 7.68153 17.115 7.56392 16.868H20.3091C20.1914 17.115 20.1255 17.3911 20.1255 17.6825C20.1255 18.7304 20.9781 19.5829 22.026 19.5829C23.0739 19.5829 23.9264 18.7304 23.9264 17.6825C23.9264 17.3828 23.8567 17.0991 23.7326 16.8467C26.0327 16.6242 27.8369 14.68 27.8369 12.3224V6.91476C27.8369 6.61492 27.5938 6.37178 27.2939 6.37178ZM26.7509 9.05646H13.056V7.4578H26.7509V9.05646ZM5.75089 6.68747H11.4344C11.7297 6.68747 11.9699 6.92769 11.9699 7.22291V13.2221H11.1626V12.256C11.1626 11.9562 10.9195 11.713 10.6196 11.713C10.3197 11.713 10.0766 11.9562 10.0766 12.256V13.2221H9.1356V12.256C9.1356 11.9562 8.8925 11.713 8.59261 11.713C8.29272 11.713 8.04962 11.9562 8.04962 12.256V13.2221H7.10863V12.256C7.10863 11.9562 6.86553 11.713 6.56564 11.713C6.26575 11.713 6.02265 11.9562 6.02265 12.256V13.2221H5.2154V7.22291C5.2154 6.92763 5.45561 6.68747 5.75089 6.68747ZM4.12942 7.45775V9.05641H1.12198V7.45775H4.12942ZM6.66148 17.6825C6.66148 18.1316 6.2961 18.497 5.847 18.497C5.39789 18.497 5.03252 18.1316 5.03252 17.6825C5.03252 17.2334 5.39789 16.868 5.847 16.868C6.2961 16.868 6.66148 17.2334 6.66148 17.6825ZM22.0259 18.497C21.5768 18.497 21.2115 18.1316 21.2115 17.6825C21.2115 17.2334 21.5768 16.868 22.0259 16.868C22.475 16.868 22.8404 17.2334 22.8404 17.6825C22.8404 18.1316 22.4751 18.497 22.0259 18.497ZM26.7509 12.3224C26.7509 14.2301 25.199 15.7821 23.2914 15.7821H4.58157C2.67395 15.7821 1.12198 14.2301 1.12198 12.3224V10.1424H4.12942V13.7651C4.12942 14.065 4.37252 14.3081 4.67241 14.3081H12.513C12.8129 14.3081 13.056 14.065 13.056 13.7651V10.1424H26.7509V12.3224Z" fill="#201B13"/>
</svg>
