<svg width="26" height="19" viewBox="0 0 26 19" fill="none" xmlns="http://www.w3.org/2000/svg">
<path d="M4.49512 12.7993C5.10657 8.9558 8.44419 6.00842 12.4571 6.00842H13.6132C17.6261 6.00842 20.9637 8.9558 21.5752 12.7993H4.49512Z" fill="#6F4F28"/>
<path d="M25.4673 14.7197H24.6064V14.0705C24.6064 11.1341 23.4629 8.3735 21.3866 6.29713C19.571 4.48158 17.2322 3.37927 14.7102 3.13103C14.8814 2.84171 14.9797 2.50447 14.9797 2.14465C14.9797 1.07306 14.1074 0.201294 13.0352 0.201294C11.9629 0.201294 11.0906 1.07306 11.0906 2.14465C11.0906 2.50442 11.1889 2.84171 11.3602 3.13103C8.83815 3.37927 6.49934 4.48158 4.68375 6.29713C2.60738 8.37345 1.46388 11.1341 1.46388 14.0705V14.7198H0.603027C0.323961 14.7198 0.0976562 14.9461 0.0976562 15.2252V16.9714C0.0976562 17.6496 0.64937 18.2013 1.32753 18.2013H24.7428C25.4209 18.2013 25.9726 17.6496 25.9726 16.9714V15.2252C25.9726 14.946 25.7463 14.7197 25.4673 14.7197V14.7197ZM13.0352 1.21199C13.55 1.21199 13.969 1.63033 13.969 2.1446C13.969 2.65886 13.5501 3.07726 13.0352 3.07726C12.5202 3.07726 12.1013 2.65886 12.1013 2.1446C12.1013 1.63033 12.5203 1.21199 13.0352 1.21199ZM2.47462 14.0705C2.47462 8.56614 6.95271 4.08805 12.4571 4.08805H13.6131C19.1175 4.08805 23.5956 8.56614 23.5956 14.0705V14.7198H2.47462V14.0705ZM24.9619 16.9714C24.9619 17.0922 24.8636 17.1905 24.7428 17.1905H1.32753C1.20669 17.1905 1.1084 17.0922 1.1084 16.9714V15.7305H24.9619V16.9714Z" fill="#201B13"/>
</svg>
