<svg width="25" height="19" viewBox="0 0 25 19" fill="none" xmlns="http://www.w3.org/2000/svg">
<path d="M21.7473 16.2624H3.34024V13.1589C3.34024 12.5835 3.82711 12.1169 4.42768 12.1169H20.6599C21.2605 12.1169 21.7473 12.5835 21.7473 13.1589V16.2624Z" fill="#6F4F28"/>
<path d="M23.4393 9.6043V1.21693C23.4393 0.969831 23.2302 0.769529 22.9724 0.769529H20.8885C20.6307 0.769529 20.4216 0.969831 20.4216 1.21693V1.92924H15.3143C14.7044 1.03676 13.6671 0.492676 12.5438 0.492676C11.4206 0.492676 10.3833 1.03676 9.77335 1.92924H4.66603V1.21693C4.66603 0.969831 4.45694 0.769529 4.1991 0.769529H2.11526C1.85742 0.769529 1.64833 0.969831 1.64833 1.21693V9.6043C1.01148 10.0062 0.590302 10.6974 0.590302 11.4812V16.2625C0.590302 16.5096 0.799395 16.7099 1.05724 16.7099H1.42621V18.0453C1.42621 18.2924 1.6353 18.4927 1.89314 18.4927H3.97697C4.23482 18.4927 4.44391 18.2924 4.44391 18.0453V16.7099H20.6437V18.0453C20.6437 18.2924 20.8528 18.4927 21.1107 18.4927H23.1945C23.4523 18.4927 23.6614 18.2924 23.6614 18.0453V16.7099H24.0304C24.2882 16.7099 24.4973 16.5096 24.4973 16.2625V11.4812C24.4973 10.6974 24.0762 10.0062 23.4393 9.6043ZM21.3555 1.66433H22.5054V9.26074C22.3907 9.2441 22.2732 9.23546 22.1536 9.23546H21.3555V1.66433ZM10.0382 2.82405C10.2099 2.82405 10.3678 2.73376 10.4492 2.58898C10.8664 1.8479 11.6689 1.38753 12.5438 1.38753C13.4187 1.38753 14.2213 1.8479 14.6384 2.58898C14.7199 2.73376 14.8777 2.82405 15.0494 2.82405H20.4216V9.23551H19.3947C19.466 9.06831 19.5053 8.88546 19.5053 8.69397V7.1975C19.5053 6.40551 18.8329 5.76116 18.0063 5.76116H14.6562C13.8297 5.76116 13.1572 6.40546 13.1572 7.1975V8.69397C13.1572 8.88546 13.1965 9.06831 13.2678 9.23551H11.9046C11.9759 9.06831 12.0152 8.88546 12.0152 8.69397V7.1975C12.0152 6.40551 11.3428 5.76116 10.5162 5.76116H7.16604C6.33947 5.76116 5.667 6.40546 5.667 7.1975V8.69397C5.667 8.88546 5.70631 9.06831 5.77761 9.23551H4.66603V2.82405H10.0382ZM14.091 8.69393V7.19745C14.091 6.89886 14.3446 6.65592 14.6562 6.65592H18.0063C18.3179 6.65592 18.5715 6.89886 18.5715 7.19745V8.69393C18.5715 8.99252 18.3179 9.23546 18.0063 9.23546H14.6562C14.3445 9.23546 14.091 8.99257 14.091 8.69393ZM6.60091 8.69393V7.19745C6.60091 6.89886 6.85446 6.65592 7.16609 6.65592H10.5162C10.8278 6.65592 11.0814 6.89886 11.0814 7.19745V8.69393C11.0814 8.99252 10.8278 9.23546 10.5162 9.23546H7.16609C6.85441 9.23546 6.60091 8.99257 6.60091 8.69393ZM2.5822 1.66433H3.73216V9.23551H2.93398C2.81445 9.23551 2.69697 9.24414 2.5822 9.26079V1.66433ZM1.52417 11.4812C1.52417 10.7363 2.15663 10.1303 2.93398 10.1303H22.1536C22.9309 10.1303 23.5634 10.7363 23.5634 11.4812V15.8151H1.52417V11.4812ZM3.51004 17.5979H2.36007V16.7099H3.51004V17.5979ZM22.7276 17.5979H21.5776V16.7099H22.7276V17.5979Z" fill="#201B13"/>
</svg>
