<svg width="23" height="19" viewBox="0 0 23 19" fill="none" xmlns="http://www.w3.org/2000/svg">
<path d="M5.52014 10.1562H18.3529C19.0761 10.1562 19.6624 10.7426 19.6624 11.4659V12.8147H4.21063V11.4659C4.21063 10.7426 4.79691 10.1562 5.52014 10.1562Z" fill="#6F4F28"/>
<path d="M22.4608 12.3869H21.8163V2.15826C21.8163 1.92198 21.6247 1.73045 21.3885 1.73045H20.9533V0.926108C20.9533 0.689825 20.7617 0.498291 20.5255 0.498291C20.2892 0.498291 20.0976 0.689825 20.0976 0.926108V1.73045H19.6624C19.4261 1.73045 19.2346 1.92198 19.2346 2.15826V12.3869H4.6384V2.15826C4.6384 1.92198 4.44682 1.73045 4.21058 1.73045H3.77532V0.926108C3.77532 0.689825 3.58375 0.498291 3.34751 0.498291C3.11127 0.498291 2.91969 0.689825 2.91969 0.926108V1.73045H2.48447C2.24823 1.73045 2.05665 1.92198 2.05665 2.15826V12.3869H1.41219C1.17595 12.3869 0.984375 12.5785 0.984375 12.8147V15.1715C0.984375 16.0312 1.67021 16.7335 2.52345 16.7604V18.0705C2.52345 18.3068 2.71502 18.4983 2.95126 18.4983H6.40083C6.63707 18.4983 6.82865 18.3068 6.82865 18.0705V16.7612H17.0444V18.0705C17.0444 18.3068 17.2359 18.4983 17.4722 18.4983H20.9217C21.158 18.4983 21.3496 18.3068 21.3496 18.0705V16.7604C22.2028 16.7336 22.8886 16.0312 22.8886 15.1715V12.8147C22.8886 12.5785 22.697 12.3869 22.4608 12.3869ZM20.9607 2.58608V3.52116H20.0902V2.58608H20.9607ZM20.0902 4.37679H20.9607V12.3869H20.0902V4.37679ZM3.78277 2.58608V3.52116H2.91229V2.58608H3.78277ZM2.91229 4.37679H3.78277V12.3869H2.91229V4.37679ZM5.97297 17.6427H3.37908V16.7612H5.97302V17.6427H5.97297ZM20.4939 17.6427H17.8999V16.7612H20.4939V17.6427ZM22.033 15.1715C22.033 15.5763 21.7037 15.9056 21.2989 15.9056H2.57401C2.16926 15.9056 1.84001 15.5763 1.84001 15.1715V13.2426H22.033V15.1715Z" fill="#201B13"/>
<path d="M14.9033 14.1462H14.4434C14.2071 14.1462 14.0156 14.3378 14.0156 14.5741C14.0156 14.8103 14.2071 15.0019 14.4434 15.0019H14.9033C15.1395 15.0019 15.3311 14.8103 15.3311 14.5741C15.3311 14.3378 15.1395 14.1462 14.9033 14.1462Z" fill="#201B13"/>
<path d="M17.2139 14.1462H16.7539C16.5177 14.1462 16.3261 14.3378 16.3261 14.5741C16.3261 14.8103 16.5177 15.0019 16.7539 15.0019H17.2139C17.4501 15.0019 17.6417 14.8103 17.6417 14.5741C17.6417 14.3378 17.4502 14.1462 17.2139 14.1462Z" fill="#201B13"/>
<path d="M19.5245 14.1462H19.0646C18.8284 14.1462 18.6368 14.3378 18.6368 14.5741C18.6368 14.8103 18.8284 15.0019 19.0646 15.0019H19.5245C19.7608 15.0019 19.9524 14.8103 19.9524 14.5741C19.9524 14.3378 19.7608 14.1462 19.5245 14.1462Z" fill="#201B13"/>
<path d="M9.25161 5.68946C9.96748 4.97346 10.921 4.57914 11.9365 4.57914C12.952 4.57914 13.9055 4.97346 14.6214 5.68946C14.7049 5.77301 14.8144 5.81476 14.9239 5.81476C15.0334 5.81476 15.1429 5.77301 15.2264 5.68946C15.3935 5.52239 15.3935 5.25154 15.2264 5.08444C14.3489 4.20686 13.1806 3.72351 11.9365 3.72351C10.6925 3.72351 9.52404 4.20686 8.64659 5.08444C8.47953 5.25154 8.47953 5.52239 8.64664 5.68946C8.81365 5.85652 9.08459 5.85652 9.25161 5.68946Z" fill="#201B13"/>
<path d="M9.78411 6.22208C9.61704 6.38919 9.61704 6.66004 9.78415 6.8271C9.95117 6.99416 10.2221 6.99416 10.3892 6.8271C10.8017 6.41451 11.3512 6.1873 11.9365 6.1873C12.5217 6.1873 13.0712 6.41451 13.4837 6.8271C13.5672 6.91065 13.6768 6.95241 13.7862 6.95241C13.8957 6.95241 14.0052 6.91065 14.0887 6.82714C14.2558 6.66008 14.2558 6.38919 14.0888 6.22208C13.5147 5.64791 12.7503 5.33167 11.9365 5.33167C11.1226 5.33167 10.3582 5.64791 9.78411 6.22208Z" fill="#201B13"/>
<path d="M12.6487 8.09019C12.5392 8.09019 12.4297 8.0484 12.3461 7.96484C12.2367 7.85537 12.0912 7.79513 11.9365 7.79513C11.7817 7.79513 11.6362 7.85541 11.5268 7.96484C11.3597 8.13195 11.0888 8.13195 10.9217 7.96489C10.7546 7.79782 10.7546 7.52697 10.9216 7.35987C11.1927 7.08876 11.5531 6.93945 11.9365 6.93945C12.3198 6.93945 12.6802 7.08876 12.9513 7.35987C13.1183 7.52697 13.1183 7.79782 12.9512 7.96489C12.8677 8.04844 12.7582 8.09019 12.6487 8.09019Z" fill="#201B13"/>
</svg>
