<svg width="16" height="21" viewBox="0 0 16 21" fill="none" xmlns="http://www.w3.org/2000/svg">
<path d="M6.18712 9.17909C7.84848 9.17909 9.19528 7.83206 9.19528 6.17042C9.19528 4.50877 7.84848 3.16174 6.18712 3.16174C4.52576 3.16174 3.17896 4.50877 3.17896 6.17042C3.17896 7.83206 4.52576 9.17909 6.18712 9.17909Z" fill="#6F4F28"/>
<path d="M14.9287 1.77701C14.713 1.77701 14.5381 1.95193 14.5381 2.16763V2.29033C14.5381 2.29033 12.6033 3.25861 11.8998 3.37619C11.5772 3.43009 11.4123 3.19892 11.0803 2.84427C10.8817 2.63216 10.6345 2.36822 10.2877 2.11091C9.85715 1.78802 9.49773 1.52322 9.12019 1.30033C7.94156 0.583491 6.57921 0.337085 5.17808 0.58814C2.93953 1.0008 1.13066 2.76111 0.67687 4.96849C0.595073 5.36716 0.553589 5.77189 0.553589 6.17138C0.553589 7.49904 0.992808 8.73775 1.82312 9.75279C2.45234 10.5259 3.25777 11.1076 4.15867 11.4595L3.15277 15.5685C2.98613 16.2491 3.13867 16.9556 3.57125 17.5068C4.00382 18.0581 4.65378 18.3742 5.35453 18.3742H5.47382C5.54378 19.5542 6.52589 20.4927 7.72308 20.4927C8.96558 20.4927 9.9764 19.4819 9.9764 18.2394V13.2858C9.9764 12.6537 10.4906 12.1395 11.1227 12.1395C11.7547 12.1395 12.2689 12.6538 12.2689 13.2858V19.7389C12.2689 19.9546 12.4439 20.1295 12.6596 20.1295C12.8753 20.1295 13.0502 19.9546 13.0502 19.7389V13.2858C13.0502 12.223 12.1855 11.3583 11.1227 11.3583C10.0599 11.3583 9.19523 12.223 9.19523 13.2858V18.2394C9.19523 19.0511 8.53488 19.7115 7.72312 19.7115C6.95687 19.7115 6.32546 19.123 6.25718 18.3743H6.34429C7.0482 18.3743 7.69996 18.0558 8.13254 17.5005C8.56507 16.9452 8.71441 16.2353 8.54215 15.5529L7.56636 11.6865C8.08757 11.5585 8.58769 11.3558 9.04949 11.0831C9.70812 10.7395 10.8104 9.87928 11.1055 9.54232C11.4818 9.16619 11.6826 8.89888 12.0587 8.9667C12.7239 9.0867 14.5381 10.0452 14.5381 10.0452V10.319C14.5381 10.5347 14.713 10.7096 14.9287 10.7096C15.1445 10.7096 15.3194 10.5347 15.3194 10.319V2.16763C15.3194 1.95193 15.1445 1.77701 14.9287 1.77701ZM7.78465 15.744C7.89757 16.1912 7.79972 16.6565 7.51621 17.0204C7.23273 17.3843 6.80562 17.593 6.34429 17.593H5.35449C4.89523 17.593 4.46933 17.3858 4.18582 17.0246C3.9023 16.6633 3.80238 16.2003 3.91156 15.7542L4.90574 11.693C5.33421 11.795 5.77777 11.8478 6.22902 11.8478C6.41843 11.8478 6.60707 11.8383 6.79418 11.8194L7.78465 15.744ZM12.2913 8.21584C12.2408 8.19717 12.1909 8.18842 12.1355 8.18342C11.363 8.11365 10.9681 8.57506 10.5533 8.98971C10.1459 9.39506 9.24961 10.0544 8.65355 10.4096C7.92578 10.8394 7.08734 11.0665 6.22906 11.0665C4.74867 11.0665 3.36363 10.4079 2.42843 9.25885C1.71304 8.38431 1.33484 7.31666 1.33484 6.17134C1.33484 5.82447 1.37097 5.47259 1.44214 5.12564C1.8325 3.22673 3.39078 1.71193 5.31785 1.35666C5.62593 1.3015 5.93156 1.27412 6.23304 1.27412C7.11527 1.27412 7.96074 1.50892 8.71636 1.96892C8.71793 1.96986 8.71945 1.97084 8.72105 1.97173C9.06492 2.17455 9.40714 2.42693 9.8205 2.73693C10.1124 2.95357 10.3237 3.17916 10.51 3.37814C10.8863 3.7799 11.2235 4.17033 11.9539 4.164C12.0079 4.16353 12.0711 4.14982 12.1207 4.1299L14.5382 3.13498V9.19306C14.5382 9.19318 12.8658 8.42834 12.2913 8.21584Z" fill="#201B13"/>
<path d="M5.94611 13.8632C5.7304 13.8632 5.55548 14.0381 5.55548 14.2538V15.67C5.55548 15.8857 5.7304 16.0606 5.94611 16.0606C6.16181 16.0606 6.33673 15.8857 6.33673 15.67V14.2538C6.33669 14.0381 6.16177 13.8632 5.94611 13.8632Z" fill="#201B13"/>
</svg>
