<svg width="17" height="20" viewBox="0 0 17 20" fill="none" xmlns="http://www.w3.org/2000/svg">
<path d="M16.1561 1.85907H13.5739C13.4163 1.35742 12.9482 0.992676 12.3967 0.992676C11.7163 0.992676 11.1628 1.54794 11.1628 2.23042V8.48599C11.1628 8.74275 11.2408 8.98941 11.3884 9.19934L12.5023 10.7837V19.6216C12.5023 19.8265 12.6684 19.9927 12.8734 19.9927H14.5991C14.804 19.9927 14.9702 19.8265 14.9702 19.6216V10.3912C14.9702 10.1345 14.8922 9.88779 14.7446 9.67787L13.8917 8.46472H16.1561C16.3611 8.46472 16.5272 8.29855 16.5272 8.09363V2.23016C16.5272 2.02521 16.361 1.85907 16.1561 1.85907ZM14.2279 10.3912V19.2505H13.2444V10.6664C13.2444 10.59 13.2209 10.5155 13.1769 10.453L11.9955 8.77254C11.9363 8.68827 11.905 8.58926 11.905 8.48602V2.23042C11.905 1.95719 12.1256 1.73486 12.3967 1.73486C12.6679 1.73486 12.8885 1.95719 12.8885 2.23042V8.21082C12.8885 8.28723 12.9121 8.36174 12.956 8.42424L14.1374 10.1047C14.1966 10.1889 14.2279 10.288 14.2279 10.3912ZM13.6307 7.72254V2.60126H15.7849V3.6401H15.4055C15.2005 3.6401 15.0344 3.80627 15.0344 4.01119C15.0344 4.21611 15.2005 4.38228 15.4055 4.38228H15.7849V5.66768H14.7423C14.5373 5.66768 14.3712 5.83385 14.3712 6.03877C14.3712 6.24369 14.5373 6.40987 14.7423 6.40987H15.7849V7.72254H13.6307Z" fill="#201B13"/>
<path d="M10.2137 0.992676H0.754883C0.549928 0.992676 0.383789 1.15885 0.383789 1.36377V2.97031C0.383789 3.17523 0.549928 3.3414 0.754883 3.3414H1.24116L1.93414 17.4263C1.96116 17.9757 2.41323 18.4061 2.9633 18.4061H3.53775V19.6216C3.53775 19.8265 3.70389 19.9927 3.90885 19.9927H7.05969C7.26465 19.9927 7.43079 19.8265 7.43079 19.6216V18.4061H8.00524C8.55531 18.4061 9.00734 17.9757 9.03439 17.4263L9.72737 3.3414H10.2137C10.4186 3.3414 10.5847 3.17523 10.5847 2.97031V1.36377C10.5847 1.15885 10.4186 0.992676 10.2137 0.992676V0.992676ZM6.6886 19.2505H4.27994V18.4061H6.6886V19.2505ZM8.29313 17.3898C8.28556 17.5435 8.15909 17.6639 8.00524 17.6639H2.9633C2.80944 17.6639 2.68297 17.5435 2.67544 17.3898L1.98424 3.3414H2.96245V3.99972C2.96245 4.20464 3.12858 4.37082 3.33354 4.37082C3.53849 4.37082 3.70463 4.20464 3.70463 3.99972V3.3414H5.11323V3.99972C5.11323 4.20464 5.27937 4.37082 5.48432 4.37082C5.68928 4.37082 5.85542 4.20464 5.85542 3.99972V3.3414H7.26398V3.99972C7.26398 4.20464 7.43012 4.37082 7.63507 4.37082C7.84003 4.37082 8.00617 4.20464 8.00617 3.99972V3.3414H8.98437L8.29313 17.3898ZM9.84256 2.59921H1.12598V1.73486H9.84256V2.59921Z" fill="#201B13"/>
<path d="M3.37961 6.02734L3.89005 16.4022H7.07845L7.58892 6.02734H3.37961Z" fill="#6F4F28"/>
</svg>
