<svg width="22" height="18" viewBox="0 0 22 18" fill="none" xmlns="http://www.w3.org/2000/svg">
<path d="M15.1861 7.73035H11.6967V6.41808C11.6967 5.99923 12.0362 5.65967 12.4551 5.65967H14.4277C14.8466 5.65967 15.1861 5.99923 15.1861 6.41808V7.73035Z" fill="#6F4F28"/>
<path d="M18.6755 7.73035H15.1861V6.41808C15.1861 5.99923 15.5257 5.65967 15.9445 5.65967H17.9171C18.336 5.65967 18.6755 5.99923 18.6755 6.41808V7.73035Z" fill="#6F4F28"/>
<path d="M17.9037 9.84229H11.1366C9.49829 9.84229 8.16547 11.179 8.16547 12.822V13.9347C8.16547 14.1654 8.35252 14.3525 8.58328 14.3525H17.9037C18.1345 14.3525 18.3215 14.1654 18.3215 13.9347V10.2601C18.3215 10.0294 18.1345 9.84229 17.9037 9.84229ZM17.4859 13.5169H9.00109V12.822C9.00109 11.6398 9.95906 10.6779 11.1366 10.6779H17.4859V13.5169Z" fill="#201B13"/>
<path d="M20.9902 5.01802C20.9902 4.05671 20.2082 3.27465 19.2469 3.27465H4.81516C4.41853 3.27465 4.09581 2.95022 4.09581 2.55145C4.09581 2.15269 4.41853 1.8283 4.8152 1.8283H17.227C17.4578 1.8283 17.6448 1.64121 17.6448 1.41049C17.6448 1.17977 17.4578 0.992676 17.227 0.992676H4.8152C3.95781 0.992676 3.26023 1.69193 3.26023 2.5515C3.26023 3.41106 3.95777 4.11032 4.8152 4.11032H19.2469C19.7474 4.11032 20.1546 4.51752 20.1546 5.01806V7.31244H10.8119C8.60477 7.31244 6.45057 8.08707 4.74643 9.49334C4.16759 9.96994 3.64512 10.5151 3.19342 11.1138C2.93442 11.4575 2.69668 11.8218 2.48727 12.1959C2.26057 12.599 2.06119 13.024 1.89465 13.4587C1.76817 13.7886 1.6582 14.1325 1.56766 14.4812L0.982809 16.2007C0.908522 16.4192 1.02538 16.6565 1.24382 16.7308C1.28844 16.746 1.33377 16.7532 1.37839 16.7532C1.55237 16.7531 1.71478 16.6436 1.7739 16.4698L2.36377 14.7355C2.36715 14.7255 2.37016 14.7155 2.37279 14.7053C2.41215 14.5527 2.45556 14.4012 2.50269 14.2516C2.71753 14.3451 2.95096 14.3945 3.18932 14.3945C4.14131 14.3945 4.91581 13.618 4.91581 12.6635C4.91581 12.0767 4.62857 11.5499 4.1663 11.2346C4.50301 10.837 4.87545 10.4695 5.27793 10.1381C6.83308 8.8548 8.79839 8.14803 10.8119 8.14803H20.1546V16.3352C20.1546 16.5659 20.3417 16.753 20.5724 16.753C20.8032 16.753 20.9902 16.5659 20.9902 16.3352V8.03166C20.9902 8.03008 20.9903 8.02849 20.9903 8.02686V5.01802H20.9902ZM3.18932 13.5588C3.05061 13.5588 2.91516 13.5263 2.79307 13.4652C2.91841 13.1703 3.06005 12.8821 3.21598 12.6048C3.35056 12.3644 3.49771 12.1287 3.65535 11.9011C3.91327 12.0615 4.08023 12.3499 4.08023 12.6635C4.08014 13.1572 3.68051 13.5588 3.18932 13.5588Z" fill="#201B13"/>
<path d="M0.240417 15.764H21.6325V17.9927H0.240417V15.764Z" fill="#6F4F28"/>
</svg>
