<svg width="18" height="21" viewBox="0 0 18 21" fill="none" xmlns="http://www.w3.org/2000/svg">
<path d="M16.9508 4.46552H13.9184L15.2855 1.54015C15.3778 1.34254 15.2818 1.11215 15.071 1.02563C14.8601 0.938988 14.6144 1.0291 14.5221 1.22668L13.0085 4.46556H0.977146C0.746991 4.46556 0.560425 4.64044 0.560425 4.85618V8.20392C0.560425 9.1629 1.21426 9.99547 2.1578 10.2941V10.6876C2.1578 11.7855 3.11121 12.6786 4.28316 12.6786H6.77361C7.26559 12.6786 7.66589 13.0534 7.66589 13.514V20.2114H4.35346C4.1233 20.2114 3.93674 20.3863 3.93674 20.6021C3.93674 20.8178 4.1233 20.9927 4.35346 20.9927H13.5745C13.8047 20.9927 13.9913 20.8178 13.9913 20.6021C13.9913 20.3863 13.8047 20.2114 13.5745 20.2114H10.2621V13.5139C10.2621 13.0533 10.6624 12.6785 11.1544 12.6785H13.6448C14.8168 12.6785 15.7702 11.7854 15.7702 10.6875V10.294C16.7137 9.99535 17.3676 9.16282 17.3676 8.20385V4.85614C17.3676 4.6404 17.181 4.46552 16.9508 4.46552ZM16.5341 8.20388C16.5341 8.89614 16.0069 9.48641 15.2806 9.60735C15.0817 9.64047 14.9367 9.80258 14.9367 9.99195V10.6876C14.9367 11.3546 14.3572 11.8973 13.6448 11.8973H11.1544C10.2028 11.8973 9.42866 12.6225 9.42866 13.514V20.2114H8.49933V13.5139C8.49933 12.6225 7.72519 11.8973 6.77361 11.8973H4.28316C3.57077 11.8973 2.99124 11.3546 2.99124 10.6875V9.99191C2.99124 9.80254 2.8463 9.64043 2.6474 9.60731C1.92106 9.48633 1.39387 8.8961 1.39387 8.20385V5.24672H12.6434L11.559 7.56725C11.4666 7.76486 11.5626 7.99525 11.7735 8.08178C11.8279 8.10412 11.8846 8.11471 11.9404 8.11471C12.1009 8.11471 12.2539 8.02732 12.3224 7.88072L13.5533 5.24668H16.5342V8.20388H16.5341Z" fill="#201B13"/>
<path d="M4.43822 9.86209V8.5294L2.90078 8.27335C2.88123 8.27011 2.84085 8.24882 2.84085 8.2039V6.60168H15.0872V8.2039C15.0872 8.24882 15.0468 8.27011 15.0273 8.27335L13.4898 8.5294V9.86209C13.4898 10.2378 13.1646 10.5424 12.7635 10.5424H5.16457C4.76339 10.5424 4.43822 10.2378 4.43822 9.86209Z" fill="#6F4F28"/>
</svg>
