<svg width="20" height="20" viewBox="0 0 20 20" fill="none" xmlns="http://www.w3.org/2000/svg">
<path d="M8.30462 12.1249C6.49109 10.3113 6.0816 8.49779 5.98922 7.77119C5.96341 7.57029 6.03254 7.36881 6.17627 7.22608L7.64388 5.75914C7.85976 5.54338 7.89807 5.20714 7.73626 4.94835L5.39956 1.31997C5.22054 1.03341 4.85295 0.929989 4.55077 1.08116L0.799545 2.84785C0.555182 2.96817 0.411452 3.2278 0.439196 3.49877C0.63575 5.36603 1.44981 9.95621 5.96072 14.4675C10.4716 18.9787 15.0612 19.7924 16.9294 19.989C17.2004 20.0167 17.46 19.873 17.5803 19.6286L19.347 15.8774C19.4976 15.5759 19.3949 15.2093 19.1095 15.0299L15.4811 12.6939C15.2225 12.5319 14.8863 12.5699 14.6703 12.7856L13.2034 14.2532C13.0607 14.3969 12.8592 14.4661 12.6583 14.4403C11.9317 14.3479 10.1182 13.9384 8.30462 12.1249Z" fill="#6F4F28"/>
<path d="M15.506 11.1477C15.1442 11.1477 14.8508 10.8544 14.8508 10.4925C14.8478 7.77994 12.6495 5.58174 9.93698 5.57867C9.57513 5.57867 9.2818 5.28534 9.2818 4.92349C9.2818 4.56164 9.57513 4.26831 9.93698 4.26831C13.3729 4.2721 16.1574 7.05655 16.1612 10.4925C16.1612 10.8544 15.8678 11.1477 15.506 11.1477Z" fill="#201B13"/>
<path d="M18.7819 11.1477C18.4201 11.1477 18.1267 10.8544 18.1267 10.4925C18.1217 5.97156 14.458 2.30785 9.93698 2.30279C9.57513 2.30279 9.2818 2.00946 9.2818 1.64761C9.2818 1.28577 9.57513 0.992432 9.93698 0.992432C15.1813 0.998209 19.4313 5.24817 19.4371 10.4925C19.4371 10.6663 19.3681 10.8329 19.2452 10.9558C19.1223 11.0787 18.9557 11.1477 18.7819 11.1477Z" fill="#201B13"/>
</svg>
