<svg width="24" height="20" viewBox="0 0 24 20" fill="none" xmlns="http://www.w3.org/2000/svg">
<path d="M7.99251 12.5343C9.93506 12.5343 11.5098 10.9596 11.5098 9.01705C11.5098 7.0745 9.93506 5.49976 7.99251 5.49976C6.04996 5.49976 4.47522 7.0745 4.47522 9.01705C4.47522 10.9596 6.04996 12.5343 7.99251 12.5343Z" fill="#6F4F28"/>
<path d="M21.671 0.379761H2.20185C1.07318 0.379761 0.154907 1.29798 0.154907 2.42671V15.6074C0.154907 16.6742 0.975241 17.5531 2.01823 17.6462L3.26725 19.2071C3.3546 19.3162 3.48682 19.3798 3.62659 19.3798H6.43487C6.57468 19.3798 6.70686 19.3162 6.79421 19.2071L8.0367 17.6544H15.8362L17.0786 19.2071C17.1659 19.3162 17.2982 19.3798 17.438 19.3798H20.2463C20.386 19.3798 20.5183 19.3162 20.6056 19.2071L21.8546 17.6462C22.8977 17.5531 23.718 16.6742 23.718 15.6074V2.42671C23.7179 1.29798 22.7997 0.379761 21.671 0.379761ZM6.21374 18.4593H3.84777L3.20365 17.6544H6.85785L6.21374 18.4593ZM20.0251 18.4593H17.6592L17.015 17.6544H20.6692L20.0251 18.4593ZM22.7975 15.6074C22.7975 16.2286 22.2922 16.734 21.671 16.734H2.20185C1.5807 16.734 1.07534 16.2286 1.07534 15.6074V2.42671C1.07534 1.80555 1.5807 1.30019 2.20185 1.30019H21.671C22.2921 1.30019 22.7975 1.80551 22.7975 2.42671V15.6074Z" fill="#201B13"/>
<path d="M21.2328 2.40466H2.64006C2.38588 2.40466 2.17984 2.61075 2.17984 2.86488V5.01998H1.95558C1.7014 5.01998 1.49536 5.22606 1.49536 5.48019C1.49536 5.73432 1.7014 5.94041 1.95558 5.94041H2.17984V12.0936H1.95558C1.7014 12.0936 1.49536 12.2997 1.49536 12.5538C1.49536 12.8079 1.7014 13.014 1.95558 13.014H2.17984V15.1692C2.17984 15.4233 2.38588 15.6294 2.64006 15.6294H21.2328C21.4869 15.6294 21.693 15.4233 21.693 15.1692V2.86488C21.693 2.61075 21.4869 2.40466 21.2328 2.40466ZM20.7726 14.709H3.10027V13.0141H3.34211C3.59629 13.0141 3.80233 12.808 3.80233 12.5538C3.80233 12.2997 3.59629 12.0936 3.34211 12.0936H3.10027V5.94041H3.34211C3.59629 5.94041 3.80233 5.73432 3.80233 5.48019C3.80233 5.22606 3.59629 5.01998 3.34211 5.01998H3.10027V3.32509H20.7726V14.709Z" fill="#201B13"/>
<path d="M7.99265 10.7986C8.97502 10.7986 9.77419 9.99944 9.77419 9.01706C9.77419 8.03468 8.97498 7.23547 7.99265 7.23547C7.01032 7.23547 6.21106 8.03468 6.21106 9.01706C6.21106 9.99944 7.01027 10.7986 7.99265 10.7986ZM7.99265 8.1559C8.46745 8.1559 8.85376 8.54226 8.85376 9.01706C8.85376 9.49186 8.46745 9.87822 7.99265 9.87822C7.5178 9.87822 7.13149 9.49186 7.13149 9.01706C7.13149 8.54226 7.5178 8.1559 7.99265 8.1559Z" fill="#201B13"/>
<path d="M13.8475 6.95095H14.3881C14.6422 6.95095 14.8483 6.74486 14.8483 6.49073C14.8483 6.2366 14.6422 6.03052 14.3881 6.03052H13.8475C13.5934 6.03052 13.3873 6.2366 13.3873 6.49073C13.3873 6.74486 13.5934 6.95095 13.8475 6.95095Z" fill="#201B13"/>
<path d="M16.1222 6.95095H16.6627C16.9169 6.95095 17.1229 6.74486 17.1229 6.49073C17.1229 6.2366 16.9169 6.03052 16.6627 6.03052H16.1222C15.8681 6.03052 15.662 6.2366 15.662 6.49073C15.662 6.74486 15.8681 6.95095 16.1222 6.95095Z" fill="#201B13"/>
<path d="M18.3969 6.95095H18.9373C19.1915 6.95095 19.3976 6.74486 19.3976 6.49073C19.3976 6.2366 19.1915 6.03052 18.9373 6.03052H18.3969C18.1427 6.03052 17.9366 6.2366 17.9366 6.49073C17.9366 6.74486 18.1427 6.95095 18.3969 6.95095Z" fill="#201B13"/>
<path d="M13.8475 8.63515H14.3881C14.6422 8.63515 14.8483 8.42907 14.8483 8.17494C14.8483 7.92081 14.6422 7.71472 14.3881 7.71472H13.8475C13.5934 7.71472 13.3873 7.92081 13.3873 8.17494C13.3873 8.42907 13.5934 8.63515 13.8475 8.63515Z" fill="#201B13"/>
<path d="M16.1222 8.63515H16.6627C16.9169 8.63515 17.1229 8.42907 17.1229 8.17494C17.1229 7.92081 16.9169 7.71472 16.6627 7.71472H16.1222C15.8681 7.71472 15.662 7.92081 15.662 8.17494C15.662 8.42907 15.8681 8.63515 16.1222 8.63515Z" fill="#201B13"/>
<path d="M18.3969 8.63515H18.9373C19.1915 8.63515 19.3976 8.42907 19.3976 8.17494C19.3976 7.92081 19.1915 7.71472 18.9373 7.71472H18.3969C18.1427 7.71472 17.9366 7.92081 17.9366 8.17494C17.9366 8.42907 18.1427 8.63515 18.3969 8.63515Z" fill="#201B13"/>
<path d="M13.8475 10.3194H14.3881C14.6422 10.3194 14.8483 10.1133 14.8483 9.85914C14.8483 9.60501 14.6422 9.39893 14.3881 9.39893H13.8475C13.5934 9.39893 13.3873 9.60501 13.3873 9.85914C13.3873 10.1133 13.5934 10.3194 13.8475 10.3194Z" fill="#201B13"/>
<path d="M16.1222 10.3194H16.6627C16.9169 10.3194 17.1229 10.1133 17.1229 9.85914C17.1229 9.60501 16.9169 9.39893 16.6627 9.39893H16.1222C15.8681 9.39893 15.662 9.60501 15.662 9.85914C15.662 10.1133 15.8681 10.3194 16.1222 10.3194Z" fill="#201B13"/>
<path d="M18.3969 10.3194H18.9373C19.1915 10.3194 19.3976 10.1133 19.3976 9.85914C19.3976 9.60501 19.1915 9.39893 18.9373 9.39893H18.3969C18.1427 9.39893 17.9366 9.60501 17.9366 9.85914C17.9366 10.1133 18.1427 10.3194 18.3969 10.3194Z" fill="#201B13"/>
<path d="M16.1222 12.0036H16.6627C16.9169 12.0036 17.1229 11.7975 17.1229 11.5433C17.1229 11.2892 16.9169 11.0831 16.6627 11.0831H16.1222C15.8681 11.0831 15.662 11.2892 15.662 11.5433C15.662 11.7975 15.8681 12.0036 16.1222 12.0036Z" fill="#201B13"/>
</svg>
