<svg width="17" height="20" viewBox="0 0 17 20" fill="none" xmlns="http://www.w3.org/2000/svg">
<path d="M5.70966 4.81494H11.378V7.54445H5.70966V4.81494Z" fill="#6F4F28"/>
<path d="M5.70966 9.65649H7.154V12.9253H5.70966V9.65649Z" fill="#6F4F28"/>
<path d="M15.9215 19.2505H15.3043V2.37114C15.3043 1.61107 14.6434 0.992676 13.8311 0.992676H3.25654C2.44422 0.992676 1.78332 1.61107 1.78332 2.37114V19.2505H1.16613C0.947089 19.2505 0.769531 19.4166 0.769531 19.6216C0.769531 19.8265 0.947089 19.9927 1.16613 19.9927H15.9215C16.1406 19.9927 16.3181 19.8265 16.3181 19.6216C16.3181 19.4166 16.1406 19.2505 15.9215 19.2505ZM4.32157 19.2505V3.36768H12.7661V19.2505H4.32157ZM13.5593 19.2505V2.99658C13.5593 2.79163 13.3817 2.62549 13.1627 2.62549H3.92497C3.70593 2.62549 3.52837 2.79163 3.52837 2.99658V19.2505H2.57652V2.37114C2.57652 2.02031 2.88155 1.73486 3.25654 1.73486H13.8312C14.2061 1.73486 14.5112 2.02027 14.5112 2.37114V19.2505H13.5593Z" fill="#201B13"/>
<path d="M11.2634 17.6248H5.8243C5.60526 17.6248 5.4277 17.7909 5.4277 17.9958C5.4277 18.2008 5.60526 18.3669 5.8243 18.3669H11.2634C11.4824 18.3669 11.66 18.2008 11.66 17.9958C11.66 17.7909 11.4824 17.6248 11.2634 17.6248Z" fill="#201B13"/>
</svg>
