<svg width="28" height="19" viewBox="0 0 28 19" fill="none" xmlns="http://www.w3.org/2000/svg">
<path d="M20.6357 16.5693H24.1027V18.7912H20.6357V16.5693Z" fill="#6F4F28"/>
<path d="M3.96729 16.5693H7.43422V18.7912H3.96729V16.5693Z" fill="#6F4F28"/>
<path d="M23.1407 14.0144H4.9292V12.7374C4.9292 11.3095 6.08672 10.152 7.51458 10.152H20.5554C21.9832 10.152 23.1407 11.3095 23.1407 12.7374V14.0144H23.1407Z" fill="#6F4F28"/>
<path d="M24.7867 4.04184H23.6816V2.74866C23.6816 1.6693 22.8035 0.79126 21.7242 0.79126H6.34579C5.26648 0.79126 4.38838 1.66935 4.38838 2.74866V4.04184H3.28322C1.57653 4.04184 0.187988 5.42784 0.187988 7.13145C0.187988 8.42046 1.00723 9.57333 2.18888 10.0217V15.5742C2.18888 16.4212 2.87896 17.1103 3.72708 17.1103H24.3428C25.191 17.1103 25.881 16.4212 25.881 15.5742V10.0217C27.0627 9.57333 27.8819 8.42046 27.8819 7.13145C27.882 5.42784 26.4934 4.04184 24.7867 4.04184V4.04184ZM5.47013 2.74866C5.47013 2.26586 5.86293 1.87306 6.34573 1.87306H13.4941V6.52791C13.4941 6.82665 13.7363 7.06881 14.035 7.06881C14.3337 7.06881 14.5759 6.82665 14.5759 6.52791V1.87306H21.7242C22.207 1.87306 22.5998 2.26586 22.5998 2.74866V13.473H5.47013V2.74866ZM25.2237 9.09188C24.9758 9.14651 24.7992 9.36622 24.7992 9.62012V15.5743C24.7992 15.8248 24.5945 16.0285 24.3428 16.0285H3.72714C3.47546 16.0285 3.27073 15.8247 3.27073 15.5743V9.62007C3.27073 9.36622 3.09412 9.14651 2.84623 9.09182C1.93276 8.89056 1.26978 8.06607 1.26978 7.13145C1.26978 6.02434 2.17298 5.12364 3.28322 5.12364H4.38838V14.0143C4.38838 14.3131 4.6306 14.5552 4.92928 14.5552H23.1407C23.4394 14.5552 23.6816 14.3131 23.6816 14.0143V5.12364H24.7868C25.897 5.12364 26.8002 6.02434 26.8002 7.13145C26.8002 8.06607 26.1372 8.89056 25.2237 9.09188Z" fill="#201B13"/>
<path d="M17.6747 7.64028C17.7803 7.74587 17.9187 7.79866 18.0571 7.79866C18.1956 7.79866 18.334 7.74581 18.4396 7.64017L18.6714 7.40835L18.9032 7.64012C19.0088 7.74581 19.1473 7.7986 19.2857 7.7986C19.4241 7.7986 19.5625 7.74581 19.6681 7.64023C19.8793 7.42901 19.8794 7.08657 19.6682 6.87529L19.4362 6.64319L19.6682 6.41109C19.8794 6.19982 19.8793 5.85737 19.6681 5.64615C19.4568 5.43493 19.1144 5.43504 18.9031 5.64626L18.6713 5.87809L18.4396 5.64626C18.2283 5.43499 17.8859 5.43499 17.6746 5.64615C17.4633 5.85737 17.4633 6.19982 17.6745 6.41109L17.9064 6.64319L17.6745 6.87529C17.4634 7.08662 17.4634 7.42906 17.6747 7.64028V7.64028Z" fill="#201B13"/>
<path d="M8.4021 7.64023C8.50774 7.74581 8.64616 7.7986 8.78452 7.7986C8.92299 7.7986 9.0614 7.74576 9.16704 7.64012L9.39881 7.40829L9.63059 7.64012C9.73623 7.74581 9.8747 7.7986 10.0131 7.7986C10.1515 7.7986 10.2899 7.74581 10.3955 7.64023C10.6067 7.42901 10.6068 7.08657 10.3956 6.87529L10.1636 6.64319L10.3956 6.41109C10.6068 6.19982 10.6067 5.85738 10.3955 5.64615C10.1842 5.43493 9.84181 5.43504 9.63053 5.64626L9.39876 5.87809L9.16709 5.64632C8.95593 5.43504 8.61354 5.43504 8.4021 5.64621C8.19088 5.85743 8.19083 6.19987 8.40199 6.41115L8.63398 6.64325L8.40199 6.87534C8.19083 7.08656 8.19088 7.42901 8.4021 7.64023Z" fill="#201B13"/>
</svg>
