<svg width="26" height="19" viewBox="0 0 26 19" fill="none" xmlns="http://www.w3.org/2000/svg">
<path d="M20.0136 10.2146H20.8914L20.8938 10.0901V3.80615H3.14569V14.3974H20.0136V10.2146Z" fill="#6F4F28"/>
<path d="M24.5631 9.74548H24.0036V2.68672C24.0036 1.75264 23.212 0.992676 22.239 0.992676H1.80069C0.827619 0.992676 0.0360107 1.75264 0.0360107 2.68672V15.5168C0.0360107 16.4509 0.827619 17.2108 1.80069 17.2108H4.48269L3.64251 18.233C3.52652 18.3741 3.50473 18.5664 3.58642 18.7282C3.66811 18.89 3.83888 18.9927 4.0261 18.9927H24.5631C24.8329 18.9927 25.0516 18.7826 25.0516 18.5236V10.2145C25.0516 9.95553 24.8329 9.74548 24.5631 9.74548ZM1.01318 15.5168V2.68672C1.01318 2.26987 1.36643 1.93079 1.80069 1.93079H22.239C22.6732 1.93079 23.0265 2.26987 23.0265 2.68672V9.74548H20.0136C19.7437 9.74548 19.525 9.95553 19.525 10.2145V16.2727H1.80069C1.36643 16.2728 1.01318 15.9336 1.01318 15.5168ZM5.03396 18.0546L5.72741 17.2109H18.3122L19.0057 18.0546H5.03396ZM24.0745 18.0546H20.5022V10.6836H24.0745V18.0546Z" fill="#201B13"/>
<path d="M22.2884 17.1522C22.9156 17.1522 23.4259 16.6623 23.4259 16.0602C23.4259 15.4581 22.9156 14.9683 22.2884 14.9683C21.6611 14.9683 21.1509 15.4581 21.1509 16.0602C21.1509 16.6623 21.6612 17.1522 22.2884 17.1522ZM22.2884 15.9063C22.3768 15.9063 22.4487 15.9754 22.4487 16.0602C22.4487 16.1451 22.3768 16.2141 22.2884 16.2141C22.2 16.2141 22.1281 16.145 22.1281 16.0602C22.1281 15.9754 22.2 15.9063 22.2884 15.9063Z" fill="#201B13"/>
<path d="M12.9932 10.5058C13.071 10.7159 13.2785 10.8563 13.5105 10.8563H13.5143C13.7478 10.8548 13.9552 10.7111 14.0314 10.4958L14.9059 7.9687C14.991 7.72287 14.8523 7.45738 14.5963 7.37568C14.3403 7.29411 14.0637 7.42708 13.9786 7.67296L13.5016 9.05128L12.9994 7.66232C12.9109 7.41761 12.6326 7.28801 12.3776 7.373C12.1227 7.458 11.9878 7.72522 12.0762 7.96997L12.9932 10.5058Z" fill="#FAF6F2"/>
<path d="M9.59746 8.28528H9.84546V10.3874C9.84546 10.6464 10.0642 10.8564 10.334 10.8564C10.6039 10.8564 10.8226 10.6464 10.8226 10.3874V8.28528H11.0766C11.3464 8.28528 11.5652 8.07524 11.5652 7.81622C11.5652 7.55721 11.3464 7.34717 11.0766 7.34717H9.5975C9.32766 7.34717 9.10892 7.55721 9.10892 7.81622C9.10892 8.07524 9.32761 8.28528 9.59746 8.28528Z" fill="#FAF6F2"/>
</svg>
