<svg width="30" height="21" viewBox="0 0 30 21" fill="none" xmlns="http://www.w3.org/2000/svg">
<path d="M28.1231 6.75744C28.1231 5.23624 26.8887 4.00306 25.3658 4.00306C25.1056 4.00306 24.8538 4.03909 24.6152 4.10637C24.3052 1.94072 22.3405 0.259399 19.997 0.259399C18.5279 0.259399 17.1042 0.922151 16.2024 2.00857C15.8303 1.78688 15.3954 1.6595 14.9306 1.6595C13.6018 1.6595 12.5165 2.70084 12.4478 4.01116C12.3778 4.00584 12.3071 4.00306 12.2357 4.00306C10.9538 4.00306 9.8763 4.87691 9.56738 6.06082H11.9336C12.4432 6.06082 12.8737 6.3997 13.012 6.86438H28.121C28.1225 6.82909 28.1231 6.79335 28.1231 6.75744Z" fill="#6F4F28"/>
<path d="M28.4772 6.29795H13.3728C13.0744 5.81605 12.5409 5.49438 11.9337 5.49438H6.00495C5.3977 5.49438 4.86421 5.81605 4.56582 6.29795H0.609985C0.297159 6.29795 0.0435791 6.55158 0.0435791 6.86435V12.5052C0.0435791 14.9645 1.92558 16.9926 4.32499 17.2247C4.19556 17.4879 4.12278 17.7839 4.12278 18.0965C4.12278 19.1896 5.01209 20.0789 6.1052 20.0789C7.19831 20.0789 8.08762 19.1896 8.08762 18.0965C8.08762 17.7926 8.01886 17.5045 7.89618 17.2469H21.191C21.0683 17.5045 20.9996 17.7926 20.9996 18.0965C20.9996 19.1896 21.8889 20.0789 22.982 20.0789C24.0751 20.0789 24.9644 19.1896 24.9644 18.0965C24.9644 17.7839 24.8917 17.4879 24.7622 17.2247C27.1616 16.9926 29.0436 14.9645 29.0436 12.5052V6.86435C29.0436 6.55158 28.7899 6.29795 28.4772 6.29795ZM27.9108 9.09843H13.6251V7.43081H27.9108V9.09843ZM6.00495 6.62725H11.9336C12.2416 6.62725 12.4922 6.87783 12.4922 7.18579V13.4437H11.65V12.436C11.65 12.1232 11.3965 11.8696 11.0836 11.8696C10.7708 11.8696 10.5172 12.1232 10.5172 12.436V13.4437H9.53564V12.436C9.53564 12.1232 9.28206 11.8696 8.96924 11.8696C8.65641 11.8696 8.40283 12.1232 8.40283 12.436V13.4437H7.42125V12.436C7.42125 12.1232 7.16767 11.8696 6.85484 11.8696C6.54201 11.8696 6.28843 12.1232 6.28843 12.436V13.4437H5.44636V7.18579C5.44636 6.87778 5.69694 6.62725 6.00495 6.62725ZM4.31355 7.43076V9.09837H1.17639V7.43076H4.31355ZM6.95481 18.0965C6.95481 18.565 6.57368 18.9461 6.1052 18.9461C5.63673 18.9461 5.25559 18.565 5.25559 18.0965C5.25559 17.6281 5.63673 17.2469 6.1052 17.2469C6.57368 17.2469 6.95481 17.628 6.95481 18.0965ZM22.982 18.9461C22.5135 18.9461 22.1323 18.565 22.1323 18.0965C22.1323 17.6281 22.5135 17.2469 22.982 17.2469C23.4504 17.2469 23.8316 17.6281 23.8316 18.0965C23.8316 18.565 23.4505 18.9461 22.982 18.9461ZM27.9108 12.5052C27.9108 14.4952 26.2919 16.1141 24.302 16.1141H4.78519C2.79529 16.1141 1.17639 14.4952 1.17639 12.5052V10.2312H4.31355V14.0102C4.31355 14.323 4.56713 14.5766 4.87995 14.5766H13.0587C13.3715 14.5766 13.6251 14.323 13.6251 14.0102V10.2312H27.9108V12.5052Z" fill="#201B13"/>
</svg>
