<svg width="24" height="20" viewBox="0 0 24 20" fill="none" xmlns="http://www.w3.org/2000/svg">
<path d="M8.23104 12.2334C10.1736 12.2334 11.7483 10.6587 11.7483 8.71614C11.7483 6.7736 10.1736 5.19885 8.23104 5.19885C6.28849 5.19885 4.71375 6.7736 4.71375 8.71614C4.71375 10.6587 6.28849 12.2334 8.23104 12.2334Z" fill="#6F4F28"/>
<path d="M21.9095 0.0788574H2.44038C1.3117 0.0788574 0.393433 0.99708 0.393433 2.1258V15.3065C0.393433 16.3733 1.21377 17.2522 2.25675 17.3453L3.50578 18.9062C3.59313 19.0153 3.72535 19.0789 3.86511 19.0789H6.6734C6.81321 19.0789 6.94538 19.0153 7.03273 18.9062L8.27522 17.3535H16.0747L17.3172 18.9062C17.4045 19.0153 17.5367 19.0789 17.6765 19.0789H20.4848C20.6246 19.0789 20.7568 19.0153 20.8441 18.9062L22.0931 17.3453C23.1362 17.2522 23.9565 16.3733 23.9565 15.3065V2.1258C23.9565 0.99708 23.0382 0.0788574 21.9095 0.0788574ZM6.45226 18.1584H4.08629L3.44218 17.3535H7.09638L6.45226 18.1584ZM20.2636 18.1584H17.8977L17.2536 17.3535H20.9077L20.2636 18.1584ZM23.036 15.3065C23.036 15.9277 22.5307 16.4331 21.9095 16.4331H2.44038C1.81923 16.4331 1.31386 15.9277 1.31386 15.3065V2.1258C1.31386 1.50465 1.81923 0.999288 2.44038 0.999288H21.9095C22.5306 0.999288 23.036 1.50461 23.036 2.1258V15.3065Z" fill="#201B13"/>
<path d="M21.4713 2.10376H2.87858C2.6244 2.10376 2.41837 2.30984 2.41837 2.56398V4.71907H2.1941C1.93993 4.71907 1.73389 4.92516 1.73389 5.17929C1.73389 5.43342 1.93993 5.6395 2.1941 5.6395H2.41837V11.7927H2.1941C1.93993 11.7927 1.73389 11.9988 1.73389 12.2529C1.73389 12.507 1.93993 12.7131 2.1941 12.7131H2.41837V14.8683C2.41837 15.1224 2.6244 15.3285 2.87858 15.3285H21.4713C21.7254 15.3285 21.9315 15.1224 21.9315 14.8683V2.56398C21.9315 2.30984 21.7254 2.10376 21.4713 2.10376ZM21.0111 14.4081H3.3388V12.7132H3.58064C3.83482 12.7132 4.04086 12.5071 4.04086 12.2529C4.04086 11.9988 3.83482 11.7927 3.58064 11.7927H3.3388V5.6395H3.58064C3.83482 5.6395 4.04086 5.43342 4.04086 5.17929C4.04086 4.92516 3.83482 4.71907 3.58064 4.71907H3.3388V3.02419H21.0111V14.4081Z" fill="#201B13"/>
<path d="M8.23117 10.4977C9.21355 10.4977 10.0127 9.69853 10.0127 8.71616C10.0127 7.73378 9.2135 6.93457 8.23117 6.93457C7.24884 6.93457 6.44958 7.73378 6.44958 8.71616C6.44958 9.69853 7.24879 10.4977 8.23117 10.4977ZM8.23117 7.855C8.70598 7.855 9.09228 8.24135 9.09228 8.71616C9.09228 9.19096 8.70598 9.57731 8.23117 9.57731C7.75632 9.57731 7.37002 9.19096 7.37002 8.71616C7.37002 8.24135 7.75632 7.855 8.23117 7.855Z" fill="#201B13"/>
<path d="M14.0861 6.65005H14.6266C14.8807 6.65005 15.0868 6.44396 15.0868 6.18983C15.0868 5.9357 14.8807 5.72961 14.6266 5.72961H14.0861C13.8319 5.72961 13.6259 5.9357 13.6259 6.18983C13.6259 6.44396 13.8319 6.65005 14.0861 6.65005Z" fill="#201B13"/>
<path d="M16.3607 6.65005H16.9013C17.1554 6.65005 17.3615 6.44396 17.3615 6.18983C17.3615 5.9357 17.1554 5.72961 16.9013 5.72961H16.3607C16.1066 5.72961 15.9005 5.9357 15.9005 6.18983C15.9005 6.44396 16.1066 6.65005 16.3607 6.65005Z" fill="#201B13"/>
<path d="M18.6354 6.65005H19.1759C19.43 6.65005 19.6361 6.44396 19.6361 6.18983C19.6361 5.9357 19.43 5.72961 19.1759 5.72961H18.6354C18.3813 5.72961 18.1752 5.9357 18.1752 6.18983C18.1752 6.44396 18.3812 6.65005 18.6354 6.65005Z" fill="#201B13"/>
<path d="M14.0861 8.33425H14.6266C14.8807 8.33425 15.0868 8.12817 15.0868 7.87403C15.0868 7.6199 14.8807 7.41382 14.6266 7.41382H14.0861C13.8319 7.41382 13.6259 7.6199 13.6259 7.87403C13.6259 8.12817 13.8319 8.33425 14.0861 8.33425Z" fill="#201B13"/>
<path d="M16.3607 8.33425H16.9013C17.1554 8.33425 17.3615 8.12817 17.3615 7.87403C17.3615 7.6199 17.1554 7.41382 16.9013 7.41382H16.3607C16.1066 7.41382 15.9005 7.6199 15.9005 7.87403C15.9005 8.12817 16.1066 8.33425 16.3607 8.33425Z" fill="#201B13"/>
<path d="M18.6354 8.33425H19.1759C19.43 8.33425 19.6361 8.12817 19.6361 7.87403C19.6361 7.6199 19.43 7.41382 19.1759 7.41382H18.6354C18.3813 7.41382 18.1752 7.6199 18.1752 7.87403C18.1752 8.12817 18.3812 8.33425 18.6354 8.33425Z" fill="#201B13"/>
<path d="M14.0861 10.0185H14.6266C14.8807 10.0185 15.0868 9.81237 15.0868 9.55824C15.0868 9.30411 14.8807 9.09802 14.6266 9.09802H14.0861C13.8319 9.09802 13.6259 9.30411 13.6259 9.55824C13.6259 9.81237 13.8319 10.0185 14.0861 10.0185Z" fill="#201B13"/>
<path d="M16.3607 10.0185H16.9013C17.1554 10.0185 17.3615 9.81237 17.3615 9.55824C17.3615 9.30411 17.1554 9.09802 16.9013 9.09802H16.3607C16.1066 9.09802 15.9005 9.30411 15.9005 9.55824C15.9005 9.81237 16.1066 10.0185 16.3607 10.0185Z" fill="#201B13"/>
<path d="M18.6354 10.0185H19.1759C19.43 10.0185 19.6361 9.81237 19.6361 9.55824C19.6361 9.30411 19.43 9.09802 19.1759 9.09802H18.6354C18.3813 9.09802 18.1752 9.30411 18.1752 9.55824C18.1752 9.81237 18.3812 10.0185 18.6354 10.0185Z" fill="#201B13"/>
<path d="M16.3607 11.7027H16.9013C17.1554 11.7027 17.3615 11.4966 17.3615 11.2424C17.3615 10.9883 17.1554 10.7822 16.9013 10.7822H16.3607C16.1066 10.7822 15.9005 10.9883 15.9005 11.2424C15.9005 11.4966 16.1066 11.7027 16.3607 11.7027Z" fill="#201B13"/>
</svg>
