<svg width="26" height="20" viewBox="0 0 26 20" fill="none" xmlns="http://www.w3.org/2000/svg">
<path d="M20.288 9.81303H21.1776L21.1801 9.68163V3.04858H3.19482V14.2283H20.288V9.81303Z" fill="#6F4F28"/>
<path d="M24.8983 9.31793H24.3314V1.86701C24.3314 0.881041 23.5292 0.0788574 22.5431 0.0788574H1.83183C0.845763 0.0788574 0.0435791 0.881041 0.0435791 1.86701V15.4099C0.0435791 16.3958 0.845763 17.198 1.83183 17.198H4.54966L3.69826 18.277C3.58072 18.4259 3.55864 18.6289 3.64142 18.7997C3.72421 18.9705 3.89725 19.0789 4.08698 19.0789H24.8983C25.1718 19.0789 25.3934 18.8571 25.3934 18.5837V9.81305C25.3934 9.53964 25.1718 9.31793 24.8983 9.31793ZM1.03381 15.4099V1.86701C1.03381 1.427 1.39177 1.06909 1.83183 1.06909H22.5431C22.9832 1.06909 23.3412 1.427 23.3412 1.86701V9.31793H20.288C20.0146 9.31793 19.7929 9.53964 19.7929 9.81305V16.2078H1.83183C1.39177 16.2078 1.03381 15.8499 1.03381 15.4099ZM5.1083 18.0886L5.81101 17.1981H18.5639L19.2667 18.0886H5.1083ZM24.4032 18.0886H20.7832V10.3082H24.4032V18.0886Z" fill="#201B13"/>
<path d="M22.5932 17.1361C23.2288 17.1361 23.746 16.619 23.746 15.9834C23.746 15.3479 23.2289 14.8308 22.5932 14.8308C21.9576 14.8308 21.4406 15.3479 21.4406 15.9834C21.4406 16.619 21.9576 17.1361 22.5932 17.1361ZM22.5932 15.821C22.6828 15.821 22.7557 15.8939 22.7557 15.9834C22.7557 16.073 22.6828 16.1458 22.5932 16.1458C22.5037 16.1458 22.4308 16.073 22.4308 15.9834C22.4308 15.8939 22.5037 15.821 22.5932 15.821Z" fill="#201B13"/>
<path d="M13.1739 10.1205C13.2527 10.3422 13.463 10.4905 13.6981 10.4905H13.7019C13.9386 10.4889 14.1487 10.3372 14.226 10.1099L15.1121 7.44245C15.1983 7.18297 15.0579 6.90273 14.7984 6.81648C14.539 6.73038 14.2586 6.87075 14.1724 7.13029L13.6891 8.58518L13.1801 7.11905C13.0905 6.86075 12.8084 6.72395 12.5501 6.81366C12.2918 6.90337 12.155 7.18544 12.2447 7.44379L13.1739 10.1205Z" fill="#FAF6F2"/>
<path d="M9.73274 7.77661H9.98406V9.99546C9.98406 10.2689 10.2057 10.4906 10.4792 10.4906C10.7526 10.4906 10.9743 10.2689 10.9743 9.99546V7.77661H11.2316C11.5051 7.77661 11.7268 7.55489 11.7268 7.28149C11.7268 7.00809 11.5051 6.78638 11.2316 6.78638H9.73278C9.45933 6.78638 9.23767 7.00809 9.23767 7.28149C9.23767 7.55489 9.45928 7.77661 9.73274 7.77661Z" fill="#FAF6F2"/>
</svg>
